<?xml version="1.0" encoding="utf-8"?>
<!-- Generator: Adobe Illustrator 26.3.1, SVG Export Plug-In . SVG Version: 6.00 Build 0)  -->
<svg version="1.1" id="Слой_1" xmlns="http://www.w3.org/2000/svg" xmlns:xlink="http://www.w3.org/1999/xlink" x="0px" y="0px"
	 viewBox="0 0 21.5 21.5" style="enable-background:new 0 0 21.5 21.5;" xml:space="preserve">
<style type="text/css">
	.st0{fill:#FFFFFF;}
</style>
<path class="st0" d="M13.8,21.5h-6c-1.3,0-2.4-0.1-3.4-0.4c-0.3-0.1-0.6-0.4-0.5-0.8c0.2-3,3.3-5.3,6.9-5.3c3.6,0,6.6,2.3,6.9,5.3
	c0,0.4-0.2,0.7-0.5,0.8C16.2,21.4,15.1,21.5,13.8,21.5z M5.5,19.8C6.1,19.9,6.9,20,7.8,20h6c0.9,0,1.6-0.1,2.3-0.2
	c-0.5-1.9-2.7-3.3-5.3-3.3C8.2,16.5,6,17.9,5.5,19.8z"/>
<path class="st0" d="M10.7,13.7c-2.4,0-4.3-1.9-4.3-4.3C6.4,6.9,8.4,5,10.7,5c2.4,0,4.3,1.9,4.3,4.3C15.1,11.7,13.1,13.7,10.7,13.7z
	 M10.7,6.5c-1.6,0-2.8,1.3-2.8,2.8c0,1.6,1.3,2.8,2.8,2.8s2.8-1.3,2.8-2.8C13.6,7.8,12.3,6.5,10.7,6.5z"/>
<g>
	<path d="M13.8,0.8h-6c-5,0-7,2-7,7v6c0,3.8,1.1,5.9,3.9,6.6c0.2-2.6,2.9-4.7,6.1-4.7s5.9,2.1,6.1,4.7c2.7-0.8,3.9-2.8,3.9-6.6v-6
		C20.8,2.8,18.8,0.8,13.8,0.8z M10.8,12.9c-2,0-3.6-1.6-3.6-3.6c0-2,1.6-3.6,3.6-3.6s3.6,1.6,3.6,3.6C14.3,11.3,12.7,12.9,10.8,12.9
		z"/>
	<path class="st0" d="M4.6,21.1c-0.1,0-0.1,0-0.2,0c-3-0.9-4.4-3.2-4.4-7.3v-6C0,2.3,2.3,0,7.8,0h6c5.4,0,7.8,2.3,7.8,7.8v6
		c0,4.2-1.4,6.5-4.4,7.3c-0.2,0.1-0.4,0-0.6-0.1c-0.2-0.1-0.3-0.3-0.3-0.6c-0.2-2.2-2.6-4-5.4-4s-5.2,1.7-5.4,4
		c0,0.2-0.1,0.4-0.3,0.6C4.9,21.1,4.8,21.1,4.6,21.1z M10.8,15c3.2,0,6,1.9,6.7,4.4c1.8-0.8,2.5-2.6,2.5-5.6v-6
		c0-4.6-1.6-6.2-6.2-6.2h-6c-4.6,0-6.2,1.6-6.2,6.2v6c0,3.1,0.8,4.8,2.5,5.6C4.8,16.8,7.5,15,10.8,15z M10.8,13.7
		c-2.4,0-4.3-1.9-4.3-4.3C6.4,6.9,8.4,5,10.8,5s4.3,1.9,4.3,4.3C15.1,11.7,13.1,13.7,10.8,13.7z M10.8,6.5c-1.6,0-2.8,1.3-2.8,2.8
		c0,1.6,1.3,2.8,2.8,2.8s2.8-1.3,2.8-2.8C13.6,7.8,12.3,6.5,10.8,6.5z"/>
</g>
</svg>
