<?xml version="1.0" encoding="UTF-8"?><svg id="a" xmlns="http://www.w3.org/2000/svg" viewBox="0 0 21.5 21.5"><path d="M13.75,0H7.75C2.32,0,0,2.32,0,7.75v6c0,4.16,1.4,6.49,4.41,7.34h.01c.93,.28,2.02,.41,3.33,.41h6c1.32,0,2.41-.13,3.34-.41h.01c3-.86,4.4-3.19,4.4-7.34V7.75C21.5,2.32,19.18,0,13.75,0ZM7.75,20c-.86,0-1.61-.06-2.26-.19,0-.03,.01-.07,.02-.1,.03-.1,.08-.2,.12-.3,.06-.15,.12-.29,.2-.43,.05-.09,.11-.18,.18-.27,.09-.13,.19-.27,.3-.39,.07-.08,.15-.16,.23-.24,.12-.12,.25-.23,.39-.34,.09-.07,.18-.14,.27-.21,.15-.1,.3-.19,.46-.28,.1-.06,.2-.12,.31-.17,.17-.08,.35-.15,.53-.22,.11-.04,.22-.09,.33-.12,.21-.06,.42-.11,.64-.15,.1-.02,.2-.05,.3-.06,.32-.05,.65-.08,.99-.08s.67,.03,1,.08c.1,.01,.19,.04,.28,.06,.22,.04,.44,.09,.65,.15,.11,.03,.21,.08,.32,.11,.19,.07,.37,.14,.55,.22,.1,.05,.2,.1,.3,.16,.16,.09,.33,.19,.48,.29,.09,.06,.17,.13,.26,.19,.14,.11,.28,.23,.4,.36,.07,.07,.14,.15,.21,.22,.12,.13,.22,.27,.32,.41,.06,.08,.11,.16,.16,.25,.08,.15,.15,.3,.21,.45,.04,.09,.08,.18,.11,.28,.01,.03,.01,.07,.02,.1-.66,.13-1.4,.19-2.26,.19H7.75Zm12.25-6.25c0,3.06-.77,4.79-2.54,5.61,0-.01-.01-.03-.02-.04-.08-.28-.19-.55-.33-.81-.02-.04-.04-.09-.07-.13-.14-.26-.29-.5-.47-.74-.03-.03-.05-.06-.08-.1-.19-.24-.4-.47-.63-.69l-.02-.02c-.24-.22-.5-.42-.78-.61-.02-.01-.03-.02-.05-.03-.27-.18-.56-.34-.86-.48-.04-.02-.08-.04-.11-.05-.3-.14-.61-.25-.93-.35-.05-.01-.09-.03-.14-.04-.33-.09-.66-.17-1-.22-.04,0-.08,0-.12-.01-.36-.05-.73-.08-1.11-.08s-.74,.03-1.1,.08c-.04,0-.09,0-.13,.02-.34,.05-.66,.13-.98,.22-.06,.02-.11,.03-.17,.05-.31,.1-.61,.21-.9,.34-.05,.02-.1,.05-.15,.07-.29,.14-.57,.29-.83,.46-.03,.02-.06,.04-.08,.06-.26,.17-.5,.36-.73,.57-.02,.02-.04,.03-.05,.04-.23,.21-.43,.44-.62,.67-.03,.03-.06,.07-.08,.1-.18,.24-.34,.48-.48,.74-.02,.04-.04,.08-.06,.12-.13,.26-.24,.54-.33,.82,0,.01-.01,.02-.01,.03-1.77-.82-2.54-2.55-2.54-5.61V7.75C1.5,3.14,3.14,1.5,7.75,1.5h6c4.61,0,6.25,1.64,6.25,6.25v6Z" fill="currentColor"/><path d="M11.37,5.06c-.2-.03-.41-.06-.62-.06-.17,0-.34,.03-.5,.05-2.15,.25-3.83,2.06-3.83,4.28,0,.3,.03,.59,.09,.87,.4,1.98,2.15,3.47,4.24,3.47,2.39,0,4.33-1.95,4.33-4.34,0-.29-.03-.57-.09-.84-.35-1.79-1.81-3.16-3.63-3.43Zm-3.45,4.27c0-1.56,1.27-2.83,2.83-2.83s2.83,1.27,2.83,2.83c0,.2-.02,.39-.06,.57-.21,1.01-.96,1.82-1.93,2.13-.27,.08-.55,.14-.84,.14-.26,0-.5-.05-.74-.11-1.2-.33-2.09-1.42-2.09-2.73Z" fill="currentColor"/></svg>