<?xml version="1.0" encoding="UTF-8"?><svg id="a" xmlns="http://www.w3.org/2000/svg" viewBox="0 0 21.5 21.5"><path d="M7.82,13.64c-.29,.29-.3,.77,0,1.06l.33,.33,1.06-1.06-.33-.33c-.29-.29-.77-.3-1.06,0Z" fill="currentColor"/><circle cx="12.16" cy="9.45" r="1" fill="currentColor"/><path d="M8.61,5.96c-1.18,1.18-1.67,2.86-1.33,4.48l-2.29,2.29c-.34,.36-.54,.97-.47,1.43l.16,1.21c.11,.74,.74,1.36,1.46,1.45l1.19,.16c.07,.02,.15,.02,.22,.02v.02c.46,0,.96-.2,1.24-.5l2.29-2.28c1.62,.34,3.3-.15,4.49-1.34,.92-.93,1.43-2.17,1.43-3.48s-.51-2.54-1.44-3.46c-1.92-1.91-5.04-1.91-6.95,0Zm5.87,5.9c-.9,.9-2.21,1.22-3.42,.84-.26-.08-.55-.02-.75,.18l-1.1,1.09,.52,.53c.3,.29,.29,.77,0,1.06-.15,.15-.34,.22-.53,.22s-.38-.07-.53-.22l-.52-.53-.43,.43s-.19,.05-.19,.05l-1.2-.16s-.17-.12-.17-.18l-.16-1.2s.06-.19,.06-.19l2.58-2.58c.19-.2,.27-.48,.19-.75-.38-1.22-.06-2.53,.84-3.43,.66-.67,1.54-1,2.41-1v.02c.86,0,1.74,.34,2.41,1,.64,.64,.99,1.49,.99,2.4s-.36,1.77-1,2.42Z" fill="currentColor"/><path d="M13.75,0H7.75C2.32,0,0,2.32,0,7.75v6c0,5.43,2.32,7.75,7.75,7.75h6c5.43,0,7.75-2.32,7.75-7.75V7.75C21.5,2.32,19.18,0,13.75,0Zm6.25,13.75c0,4.61-1.64,6.25-6.25,6.25H7.75c-4.61,0-6.25-1.64-6.25-6.25V7.75C1.5,3.14,3.14,1.5,7.75,1.5h6c4.61,0,6.25,1.64,6.25,6.25v6Z" fill="currentColor"/></svg>